<?xml version="1.0" encoding="utf-8"?>
<!-- Generator: Adobe Illustrator 27.0.0, SVG Export Plug-In . SVG Version: 6.00 Build 0)  -->
<svg version="1.1" id="Calque_1" xmlns="http://www.w3.org/2000/svg" xmlns:xlink="http://www.w3.org/1999/xlink" x="0px" y="0px"
	 viewBox="0 0 420.9 252.6" style="enable-background:new 0 0 420.9 252.6;" xml:space="preserve">
<style type="text/css">
	.st0{fill:#FFFFFF;}
	.st1{fill:#E5005B;}
	.st2{fill:#009FE3;}
	.st3{fill:#312A74;}
</style>
<path class="st0" d="M277.4,89.2c-2.8,13.5-13,23.4-31.1,23.4c-22.9,0-33.8-16.2-33.8-36.8c0-19.8,11.2-37.5,34.5-37.5
	c19.3,0,28.6,11.2,30.4,23.4h-15.6c-1.6-5.7-5.4-11.2-15.3-11.2c-12.9,0-17.8,11.6-17.8,24.9c0,12.2,4.3,25,18.2,25
	c10.3,0,13.4-6.8,14.8-11.1L277.4,89.2z M338,84.3c0,16.4-9.9,28.4-27,28.4c-16.8,0-26.6-12.1-26.6-28.2c0-16.8,10.2-28.6,27.4-28.6
	C327.6,56,338,67.3,338,84.3L338,84.3z M299.5,84.4c0,10.5,4.5,16.7,11.7,16.7s11.5-6.2,11.5-16.6c0-11.4-4.2-16.7-11.7-16.7
	C304.1,67.9,299.5,73,299.5,84.4z M397.4,84.3c0,16.4-9.9,28.4-27,28.4c-16.8,0-26.6-12.1-26.6-28.2c0-16.8,10.2-28.6,27.4-28.6
	C387,56,397.4,67.3,397.4,84.3z M358.9,84.4c0,10.5,4.5,16.7,11.7,16.7c7.4,0,11.5-6.2,11.5-16.6c0-11.4-4.2-16.7-11.7-16.7
	C363.5,67.9,358.9,73,358.9,84.4z M406.2,111.6V35.1h15.1v76.5H406.2z M216.1,144.2h15.6v59.4h36.1l-1.8,12.8h-49.9L216.1,144.2z
	 M291.6,144.2v72.2H276v-72.2L291.6,144.2z M307.3,144.2h50.4V157h-35.1v17.7h32.9v12.8h-32.9v28.9h-15.3L307.3,144.2z M417.8,185.3
	h-34.6v18.3h38.1l-1.9,12.8H368v-72.2h51.2V157h-36v15.4h34.6V185.3z"/>
<path class="st1" d="M114.1,150c-4.8,5.2-11,8.7-17.8,10.3v15.5c12.3-1.9,23.5-8.4,31.3-18.1L114.1,150 M63.2,150l-13.4,7.8
	c7.8,9.7,19,16.2,31.3,18.1v-15.5C74.2,158.8,68,155.2,63.2,150 M135.3,108.4l-13.5,7.8c2.1,6.7,2.1,13.9,0,20.6l13.5,7.8
	C139.8,133,139.8,120.1,135.3,108.4 M42.1,108.4c-4.5,11.6-4.5,24.5,0,36.1l13.5-7.8c-2.1-6.7-2.1-13.9,0-20.6L42.1,108.4 M81,77.2
	c-12.3,1.9-23.5,8.4-31.3,18.1l13.4,7.8c4.8-5.2,11-8.7,17.8-10.3V77.2 M96.3,77.1v15.5c6.8,1.6,13.1,5.2,17.8,10.3l13.4-7.8
	C119.8,85.5,108.6,79.1,96.3,77.1 M50.7,45.5l-13.2,7.6l10.2,17.7l13.2-7.6L50.7,45.5 M20,118.9H-0.4v15.3H20V118.9 M47.7,182.2
	l-10.1,17.4l13.2,7.6l10.1-17.4L47.7,182.2 M129.6,182.2l-13.2,7.6l10,17.3l13.2-7.6L129.6,182.2 M177.4,118.9h-20v15.3h20V118.9
	 M126.5,45.7l-10.1,17.5l13.2,7.6l10.1-17.5L126.5,45.7"/>
<path class="st2" d="M81,175.9v19.2l-25.6,14.8l15.3,8.8l10.3-6v11.9l7.5,4.3l7.8-4.5v-11.9l10.3,6l15.3-8.8l-25.6-14.8v-19
	C91.3,176.7,86.1,176.7,81,175.9 M-0.4,139.3v17.6l10.6,6.1l-10.6,6.1v8.5l7.9,4.5l10.5-6.1v12.1l15.3,8.8v-29.7l16.5-9.5
	c-3.2-4-5.8-8.4-7.7-13.2l-16.6,9.6L-0.4,139.3 M177.3,139.3l-25.7,14.8l-16.5-9.5c-1.9,4.8-4.4,9.2-7.7,13.2l16.6,9.6v29.4
	l15.3-8.8v-11.7l10.2,5.9l7.7-4.4v-8.8l-10.4-6l10.4-6L177.3,139.3 M88.6,91.8c-2.6,0-5.1,0.3-7.6,0.8v20.6L63.2,103
	c-3.5,3.8-6.1,8.3-7.6,13.2l17.8,10.3l-17.8,10.3c1.5,4.9,4.1,9.4,7.6,13.2L81,139.7v20.6c5,1.1,10.2,1.1,15.3,0v-20.6l17.9,10.3
	c3.5-3.8,6.1-8.3,7.6-13.2L104,126.5l17.8-10.3c-1.5-4.9-4.1-9.4-7.6-13.2l-17.8,10.3V92.7C93.8,92.1,91.3,91.8,88.6,91.8
	 M144.1,55.8v29.9l-16.5,9.5c3.2,4,5.8,8.4,7.7,13.2l16.6-9.6l25.5,14.7V95.9L167.2,90l10.2-5.9v-9l-7.4-4.3l-10.6,6.1V64.6
	L144,55.8 M33.1,55.6l-15.3,8.9v12.3L7.2,70.7L-0.4,75v8.9l10.7,6.2l-10.7,6.2v17.6l26-15l16.5,9.5c1.9-4.8,4.4-9.2,7.7-13.2
	l-16.7-9.6V55.6 M88.6,23.7l-7.5,4.3v12.5l-10.8-6.1L55,43.1l26.1,15v19c5.1-0.8,10.2-0.8,15.3,0V57.9L122,43.1l-15.3-8.8l-10.5,6
	V28.2L88.6,23.7"/>
<path class="st3" d="M81,160.3v15.5c5.1,0.8,10.2,0.8,15.3,0v-15.5C91.3,161.5,86,161.5,81,160.3 M121.8,136.8
	c-1.5,4.9-4.1,9.4-7.6,13.2l13.4,7.8c3.2-4,5.8-8.4,7.7-13.2L121.8,136.8 M55.5,136.8l-13.5,7.8c1.9,4.8,4.4,9.2,7.7,13.2l13.4-7.8
	C59.7,146.2,57.1,141.7,55.5,136.8 M49.7,95.2c-3.2,4-5.8,8.4-7.7,13.2l13.5,7.8c1.5-4.9,4.1-9.4,7.6-13.2L49.7,95.2 M127.6,95.2
	l-13.4,7.8c3.5,3.8,6.1,8.3,7.6,13.2l13.5-7.8C133.4,103.7,130.8,99.2,127.6,95.2 M88.7,76.6c-2.6,0-5.1,0.2-7.6,0.6v15.5
	c5-1.1,10.2-1.1,15.3,0V77.1C93.8,76.8,91.2,76.6,88.7,76.6"/>
</svg>
